<svg
   xmlns:dc="http://purl.org/dc/elements/1.1/"
   xmlns:cc="http://creativecommons.org/ns#"
   xmlns:rdf="http://www.w3.org/1999/02/22-rdf-syntax-ns#"
   xmlns:svg="http://www.w3.org/2000/svg"
   xmlns="http://www.w3.org/2000/svg"
   xmlns:sodipodi="http://sodipodi.sourceforge.net/DTD/sodipodi-0.dtd"
   xmlns:inkscape="http://www.inkscape.org/namespaces/inkscape"
   enable_background="new 0 0 1000 589"
   height="589px"
   pretty_print="False"
   style="stroke-linejoin: round; stroke:#000; fill: none;"
   version="1.1"
   viewBox="0 0 1000 589"
   width="1000px"
   id="svg"
   inkscape:version="0.48.4 r9939"
   sodipodi:docname="us.svg"><path xmlns="http://www.w3.org/2000/svg" inkscape:connector-curvature="0" id="IA" data-name="Iowa" data-id="IA" d="m 661.53109,197.69989 -5.33847,-2.81483 -2.9119,-3.97959 -0.97063,-5.72672 0.77651,-2.62071 -2.81483,-3.39721 0,0 -4.7561,0.48532 -47.75505,3.97959 -19.12144,1.06769 -4.85315,0.29119 -2.03833,0.0971 1.65008,10.77401 -1.35889,5.14435 2.13539,3.20308 0,0.67944 0.67944,0.0971 3.10602,9.12394 3.00896,4.75609 0.19413,5.43554 3.30014,4.56196 -0.58238,1.94126 3.00896,12.22996 0,0.29119 0,0 19.89794,-0.58238 21.25682,-1.8442 20.86857,-2.62071 4.7561,4.17372 0.19412,0.19412 0.87357,-0.38825 -0.67944,-3.78546 3.59133,-2.23245 1.45595,-9.90044 -1.45595,-0.67944 0.87357,-5.04728 4.36784,-0.87357 4.85316,-3.49427 2.13539,-6.11498 0.0971,-3.10602 -3.88252,-3.6884 -1.16476,-2.32951 -3.6884,-2.32952 0.19413,-0.48531 0.0971,-0.48532 z" style="stroke-width:0.97063118000000004;fill:#f9f9f9"/></svg>