<svg
   xmlns:dc="http://purl.org/dc/elements/1.1/"
   xmlns:cc="http://creativecommons.org/ns#"
   xmlns:rdf="http://www.w3.org/1999/02/22-rdf-syntax-ns#"
   xmlns:svg="http://www.w3.org/2000/svg"
   xmlns="http://www.w3.org/2000/svg"
   xmlns:sodipodi="http://sodipodi.sourceforge.net/DTD/sodipodi-0.dtd"
   xmlns:inkscape="http://www.inkscape.org/namespaces/inkscape"
   enable_background="new 0 0 1000 589"
   height="589px"
   pretty_print="False"
   style="stroke-linejoin: round; stroke:#000; fill: none;"
   version="1.1"
   viewBox="0 0 1000 589"
   width="1000px"
   id="svg"
   inkscape:version="0.48.4 r9939"
   sodipodi:docname="us.svg"><path xmlns="http://www.w3.org/2000/svg" inkscape:connector-curvature="0" id="ID" data-name="Idaho" data-id="ID" d="m 309.0949,52.881715 -8.63862,-1.747136 -2.81483,-0.679442 -1.26182,-0.291189 -11.25932,50.666952 0.48532,4.17371 -0.38826,4.36784 0.19413,0.97063 0,0.0971 0.0971,1.84419 3.30015,3.59134 -4.75609,11.93876 -10.09457,13.20059 -0.29119,2.42658 2.62071,6.21204 -9.221,38.24287 -0.38825,2.03832 2.71776,0.58238 27.46887,5.43553 10.96813,2.03833 2.81483,0.48532 2.71777,0.48531 13.97709,2.23245 25.04228,3.78546 2.81483,0.38826 0.38825,-3.20309 0.87357,-6.3091 3.30015,-25.23641 1.74714,-12.52114 0.38825,-3.20309 -0.58238,-0.29119 -3.00896,-5.43553 -2.52364,3.30015 -10.19163,-1.0677 -8.05624,0.0971 -0.97063,0.7765 -3.78546,-7.76505 -0.97063,-0.7765 -5.43553,-13.29765 -0.77651,-4.46491 -9.60925,-0.67944 1.8442,-5.33847 1.35888,-0.38825 3.39721,-15.91835 -2.91189,0.19412 -0.67944,-2.03832 -7.18267,-12.035829 -2.52364,-2.135389 -1.8442,-5.047282 0.87357,-0.776505 -1.45595,-5.532598 -1.8442,-3.591335 4.17371,-19.800877 -0.0971,0 z" style="stroke-width:0.97063118000000004;fill:#f9f9f9"/></svg>