<svg
   xmlns:dc="http://purl.org/dc/elements/1.1/"
   xmlns:cc="http://creativecommons.org/ns#"
   xmlns:rdf="http://www.w3.org/1999/02/22-rdf-syntax-ns#"
   xmlns:svg="http://www.w3.org/2000/svg"
   xmlns="http://www.w3.org/2000/svg"
   xmlns:sodipodi="http://sodipodi.sourceforge.net/DTD/sodipodi-0.dtd"
   xmlns:inkscape="http://www.inkscape.org/namespaces/inkscape"
   enable_background="new 0 0 1000 589"
   height="589px"
   pretty_print="False"
   style="stroke-linejoin: round; stroke:#000; fill: none;"
   version="1.1"
   viewBox="0 0 1000 589"
   width="1000px"
   id="svg"
   inkscape:version="0.48.4 r9939"
   sodipodi:docname="us.svg"><path xmlns="http://www.w3.org/2000/svg" inkscape:connector-curvature="0" id="MD" data-name="Maryland" data-id="MD" d="m 911.56569,238.27227 0.67944,-5.2414 -0.58238,3.88252 -0.38825,1.65007 -0.0971,0.19413 0.29119,-0.0971 0.0971,-0.38826 z m 0.48531,-9.02687 -0.19412,0.0971 0.19412,0.58238 0,1.16475 0,-1.8442 0,0 z m -73.37972,-6.01791 2.23245,10.19163 4.46491,-6.3091 2.23245,-0.48532 4.27078,-3.00896 2.91189,-0.67944 0,-1.94126 3.39721,-2.62071 5.82379,0.67945 2.81483,4.85315 0,0 0.29119,0.0971 4.4649,1.16475 3.20308,2.32952 3.10602,1.35888 0.29119,0.29119 0.38826,-0.7765 1.65007,-0.0971 1.35888,0.77651 -1.26182,2.32951 0,0.0971 -1.8442,5.62966 6.01792,3.88252 6.01791,0.29119 3.97959,1.8442 -1.65008,-4.65903 -5.14434,-1.74714 -1.26182,-3.97958 3.20308,4.27077 2.62071,0.38826 -2.32952,-2.32952 -1.8442,-6.89148 0.48532,-3.97959 -2.03833,-4.36784 2.13539,-1.74713 1.55301,-5.62967 -0.58238,8.34743 1.65007,2.81483 1.55301,-3.30014 0.87357,5.43553 -1.65007,3.97959 4.75609,1.74714 -4.07665,1.35888 2.13539,3.97959 3.49427,1.16475 1.94126,-3.3972 -0.19412,4.75609 3.30014,-0.0971 2.13539,2.42657 0.0971,0 0.67944,-0.87356 1.94126,-0.87357 1.26182,-0.48532 -0.0971,-0.19412 2.52364,-7.47386 0,-0.29119 -0.48532,-1.94127 0,-0.0971 -9.22099,2.71777 -8.05624,-23.00396 -0.38825,-1.45595 -1.65008,0.48532 -6.89148,2.13539 -37.95168,10.57988 -6.89148,1.8442 -1.74714,0.48531 z" style="stroke-width:0.97063118000000004;fill:#f9f9f9"/></svg>