<svg
   xmlns:dc="http://purl.org/dc/elements/1.1/"
   xmlns:cc="http://creativecommons.org/ns#"
   xmlns:rdf="http://www.w3.org/1999/02/22-rdf-syntax-ns#"
   xmlns:svg="http://www.w3.org/2000/svg"
   xmlns="http://www.w3.org/2000/svg"
   xmlns:sodipodi="http://sodipodi.sourceforge.net/DTD/sodipodi-0.dtd"
   xmlns:inkscape="http://www.inkscape.org/namespaces/inkscape"
   enable_background="new 0 0 1000 589"
   height="589px"
   pretty_print="False"
   style="stroke-linejoin: round; stroke:#000; fill: none;"
   version="1.1"
   viewBox="0 0 1000 589"
   width="1000px"
   id="svg"
   inkscape:version="0.48.4 r9939"
   sodipodi:docname="us.svg"><path xmlns="http://www.w3.org/2000/svg" inkscape:connector-curvature="0" id="NE" data-name="Nebraska" data-id="NE" d="m 572.33008,204.68843 -3.00895,-3.00895 -10.57988,-3.10602 -3.39721,-0.0971 -5.14435,1.45594 -6.11498,-3.88252 -19.12143,0.19412 -27.85712,-0.29119 -32.90439,-1.06769 -2.9119,-0.0971 -0.0971,2.52364 -0.38825,7.57092 -0.87357,17.76255 -0.48532,10.19163 -0.0971,2.52364 2.32952,0.0971 23.6834,0.87357 4.65903,0.19413 -0.38826,19.02437 -0.0971,1.26182 3.6884,0.0971 13.10352,0.19413 32.61321,0 16.40367,-0.38825 35.81629,-1.35889 3.30014,-0.19412 -0.38825,-0.38826 -2.6207,-4.65903 -2.23246,-1.553 -2.42657,-4.65903 0.0971,-0.58238 0,-0.29119 -3.00896,-12.22996 0.58238,-1.94126 -3.30014,-4.56196 -0.19413,-5.43554 -3.00896,-4.75609 -3.10602,-9.12394 -0.67944,-0.0971 -1.8442,-0.19413 z" style="stroke-width:0.97063118000000004;fill:#f9f9f9"/></svg>