<svg
   xmlns:dc="http://purl.org/dc/elements/1.1/"
   xmlns:cc="http://creativecommons.org/ns#"
   xmlns:rdf="http://www.w3.org/1999/02/22-rdf-syntax-ns#"
   xmlns:svg="http://www.w3.org/2000/svg"
   xmlns="http://www.w3.org/2000/svg"
   xmlns:sodipodi="http://sodipodi.sourceforge.net/DTD/sodipodi-0.dtd"
   xmlns:inkscape="http://www.inkscape.org/namespaces/inkscape"
   enable_background="new 0 0 1000 589"
   height="589px"
   pretty_print="False"
   style="stroke-linejoin: round; stroke:#000; fill: none;"
   version="1.1"
   viewBox="0 0 1000 589"
   width="1000px"
   id="svg"
   inkscape:version="0.48.4 r9939"
   sodipodi:docname="us.svg"><path xmlns="http://www.w3.org/2000/svg" inkscape:connector-curvature="0" id="NV" data-name="Nevada" data-id="NV" d="m 294.82662,295.8307 10.09457,-62.79983 5.14434,-31.44846 0.58238,-3.10601 -2.81483,-0.48532 -10.96813,-2.03833 -27.46887,-5.43553 -2.71776,-0.58238 -2.71777,-0.58238 -13.6859,-3.00895 -24.55697,-5.82379 -2.71777,-0.67944 -0.87357,3.68839 -13.20058,56.00542 11.45345,16.50074 11.8417,16.40366 20.96563,30.08957 15.04479,21.15976 7.76505,10.38575 2.52364,3.39721 0,-0.29119 1.55301,-3.30014 0.0971,-15.43304 4.27078,-3.59133 3.39721,3.00895 2.23245,0.0971 4.27078,-18.83025 0,-0.19413 0.48531,-3.10602 z" style="stroke-width:0.97063118000000004;fill:#f9f9f9"/></svg>