<svg
   xmlns:dc="http://purl.org/dc/elements/1.1/"
   xmlns:cc="http://creativecommons.org/ns#"
   xmlns:rdf="http://www.w3.org/1999/02/22-rdf-syntax-ns#"
   xmlns:svg="http://www.w3.org/2000/svg"
   xmlns="http://www.w3.org/2000/svg"
   xmlns:sodipodi="http://sodipodi.sourceforge.net/DTD/sodipodi-0.dtd"
   xmlns:inkscape="http://www.inkscape.org/namespaces/inkscape"
   enable_background="new 0 0 1000 589"
   height="589px"
   pretty_print="False"
   style="stroke-linejoin: round; stroke:#000; fill: none;"
   version="1.1"
   viewBox="0 0 1000 589"
   width="1000px"
   id="svg"
   inkscape:version="0.48.4 r9939"
   sodipodi:docname="us.svg"><path xmlns="http://www.w3.org/2000/svg" inkscape:connector-curvature="0" id="OH" data-name="Ohio" data-id="OH" d="m 818.19096,206.6297 -2.42657,-10.48282 -0.48532,-2.13539 -2.71777,-11.93876 -3.49427,2.23245 -7.47386,5.72672 -4.85315,5.92085 -3.78547,0.58238 -6.98854,3.97959 -3.88253,-2.32951 -11.74463,-1.35889 0,0 -6.21204,1.55301 -6.11498,1.45595 -6.40617,1.35888 -0.97063,0.29119 0.29119,1.55301 2.62071,14.65653 5.82378,34.36035 0.19413,1.65007 0.77651,-0.7765 4.75609,-0.58238 2.52364,1.26182 4.95022,4.27077 1.35888,-0.58237 5.24141,2.32951 2.52364,-1.94126 2.9119,1.16476 2.32951,-0.58238 3.6884,-3.59134 1.8442,3.10602 4.07665,2.32952 0.19413,0.19412 0,0 4.17371,-2.03832 1.45595,-3.20309 -1.16476,-3.30014 3.30014,-5.04728 2.42658,-0.38826 -0.29119,-4.27077 3.97959,-5.43554 0.67944,0.77651 3.59134,-2.71777 3.10602,-4.65903 0.48531,-21.25682 0.19413,-0.0971 -0.48532,-2.03832 z" style="stroke-width:0.97063118000000004;fill:#f9f9f9"/></svg>