<svg
   xmlns:dc="http://purl.org/dc/elements/1.1/"
   xmlns:cc="http://creativecommons.org/ns#"
   xmlns:rdf="http://www.w3.org/1999/02/22-rdf-syntax-ns#"
   xmlns:svg="http://www.w3.org/2000/svg"
   xmlns="http://www.w3.org/2000/svg"
   xmlns:sodipodi="http://sodipodi.sourceforge.net/DTD/sodipodi-0.dtd"
   xmlns:inkscape="http://www.inkscape.org/namespaces/inkscape"
   enable_background="new 0 0 1000 589"
   height="589px"
   pretty_print="False"
   style="stroke-linejoin: round; stroke:#000; fill: none;"
   version="1.1"
   viewBox="0 0 1000 589"
   width="1000px"
   id="svg"
   inkscape:version="0.48.4 r9939"
   sodipodi:docname="us.svg"><path xmlns="http://www.w3.org/2000/svg" inkscape:connector-curvature="0" id="OK" data-name="Oklahoma" data-id="OK" d="m 609.50526,322.91131 -0.19413,-2.6207 -0.0971,-2.52364 -0.19413,-2.52364 -3.6884,0.29119 -37.56342,1.74713 -52.70528,0.77651 -22.51864,-0.29119 -4.17372,-0.0971 -1.55301,0 -6.11497,-0.19413 -1.94127,-0.0971 -4.07665,-0.0971 -1.94126,-0.0971 -0.0971,2.52364 -0.0971,2.52364 -0.0971,2.52364 -0.0971,2.62071 0.58238,0 23.48927,0.58238 24.84816,0.29119 0.29119,33.19558 1.74714,5.82379 3.88252,3.6884 4.17372,0.19413 0.87356,-1.74714 5.72673,5.24141 7.47386,0.7765 1.35888,1.55301 2.71777,-1.26182 6.79442,3.20309 0,1.84419 2.52364,-0.0971 2.6207,-2.23245 4.85316,3.10602 4.56197,1.65007 3.10601,-4.27077 9.90044,4.65902 3.6884,-3.00895 3.00896,-1.16476 2.42658,0.58238 9.12393,-2.6207 4.85316,2.03832 4.36784,2.81483 3.78546,0.67944 0.0971,0 -0.0971,-4.36784 -1.0677,-26.40117 -0.0971,-4.36784 -3.78546,-19.60675 -0.58238,-2.71776 -0.0971,-2.52365 z" style="stroke-width:0.97063118000000004;fill:#f9f9f9"/></svg>