<svg
   xmlns:dc="http://purl.org/dc/elements/1.1/"
   xmlns:cc="http://creativecommons.org/ns#"
   xmlns:rdf="http://www.w3.org/1999/02/22-rdf-syntax-ns#"
   xmlns:svg="http://www.w3.org/2000/svg"
   xmlns="http://www.w3.org/2000/svg"
   xmlns:sodipodi="http://sodipodi.sourceforge.net/DTD/sodipodi-0.dtd"
   xmlns:inkscape="http://www.inkscape.org/namespaces/inkscape"
   enable_background="new 0 0 1000 589"
   height="589px"
   pretty_print="False"
   style="stroke-linejoin: round; stroke:#000; fill: none;"
   version="1.1"
   viewBox="0 0 1000 589"
   width="1000px"
   id="svg"
   inkscape:version="0.48.4 r9939"
   sodipodi:docname="us.svg"><path xmlns="http://www.w3.org/2000/svg" inkscape:connector-curvature="0" id="RI" data-name="Rhode Island" data-id="RI" d="m 946.50841,152.08022 -0.0971,-2.03832 -0.29119,0.7765 0.38825,1.26182 z m 1.94126,-1.55301 -1.26182,-2.42657 -0.0971,2.52364 1.35888,-0.0971 z m -0.58238,-3.00895 0.67944,1.74713 0.87357,1.55301 0.58238,-1.16475 -0.87357,-1.65008 -0.29119,-1.16475 -0.97063,0 0,0.67944 z m -10.774,-3.97959 0.38825,1.06769 3.00896,8.44449 0.58237,2.03833 0.0971,2.32952 0.19412,-0.29119 4.65903,-3.6884 -0.87356,-6.60029 1.94126,-0.38826 0,0 -4.27078,-5.14434 -4.4649,1.74713 -1.26182,0.48532 z" style="stroke-width:0.97063118000000004;fill:#f9f9f9"/></svg>